<mxfile host="app.diagrams.net" agent="Mozilla/5.0 (Windows NT 10.0; Win64; x64) AppleWebKit/537.36 (KHTML, like Gecko) Chrome/131.0.0.0 Safari/537.36" version="25.0.3">
  <diagram id="C5RBs43oDa-KdzZeNtuy" name="Page-1">
    <mxGraphModel dx="1290" dy="530" grid="1" gridSize="10" guides="1" tooltips="1" connect="1" arrows="1" fold="1" page="1" pageScale="1" pageWidth="827" pageHeight="1169" math="0" shadow="0">
      <root>
        <mxCell id="WIyWlLk6GJQsqaUBKTNV-0" />
        <mxCell id="WIyWlLk6GJQsqaUBKTNV-1" parent="WIyWlLk6GJQsqaUBKTNV-0" />
        <mxCell id="QF6pp8mLx_lwqcU90dm6-4" style="edgeStyle=orthogonalEdgeStyle;rounded=0;orthogonalLoop=1;jettySize=auto;html=1;exitX=0.5;exitY=1;exitDx=0;exitDy=0;exitPerimeter=0;" edge="1" parent="WIyWlLk6GJQsqaUBKTNV-1" source="QF6pp8mLx_lwqcU90dm6-0" target="QF6pp8mLx_lwqcU90dm6-1">
          <mxGeometry relative="1" as="geometry" />
        </mxCell>
        <mxCell id="QF6pp8mLx_lwqcU90dm6-0" value="START" style="strokeWidth=2;html=1;shape=mxgraph.flowchart.start_1;whiteSpace=wrap;" vertex="1" parent="WIyWlLk6GJQsqaUBKTNV-1">
          <mxGeometry x="470" y="80" width="100" height="60" as="geometry" />
        </mxCell>
        <mxCell id="QF6pp8mLx_lwqcU90dm6-5" style="edgeStyle=orthogonalEdgeStyle;rounded=0;orthogonalLoop=1;jettySize=auto;html=1;exitX=0.5;exitY=1;exitDx=0;exitDy=0;entryX=0.5;entryY=0;entryDx=0;entryDy=0;" edge="1" parent="WIyWlLk6GJQsqaUBKTNV-1" source="QF6pp8mLx_lwqcU90dm6-1" target="QF6pp8mLx_lwqcU90dm6-2">
          <mxGeometry relative="1" as="geometry" />
        </mxCell>
        <mxCell id="QF6pp8mLx_lwqcU90dm6-1" value="READ N&amp;nbsp;" style="shape=parallelogram;html=1;strokeWidth=2;perimeter=parallelogramPerimeter;whiteSpace=wrap;rounded=1;arcSize=12;size=0.23;" vertex="1" parent="WIyWlLk6GJQsqaUBKTNV-1">
          <mxGeometry x="405" y="180" width="230" height="60" as="geometry" />
        </mxCell>
        <mxCell id="QF6pp8mLx_lwqcU90dm6-6" style="edgeStyle=orthogonalEdgeStyle;rounded=0;orthogonalLoop=1;jettySize=auto;html=1;exitX=0.5;exitY=1;exitDx=0;exitDy=0;entryX=0.5;entryY=0;entryDx=0;entryDy=0;" edge="1" parent="WIyWlLk6GJQsqaUBKTNV-1" source="QF6pp8mLx_lwqcU90dm6-2" target="QF6pp8mLx_lwqcU90dm6-3">
          <mxGeometry relative="1" as="geometry" />
        </mxCell>
        <mxCell id="QF6pp8mLx_lwqcU90dm6-2" value="DISCOUNTER = N + 1" style="rounded=1;whiteSpace=wrap;html=1;absoluteArcSize=1;arcSize=14;strokeWidth=2;" vertex="1" parent="WIyWlLk6GJQsqaUBKTNV-1">
          <mxGeometry x="390" y="280" width="260" height="60" as="geometry" />
        </mxCell>
        <mxCell id="QF6pp8mLx_lwqcU90dm6-8" style="edgeStyle=orthogonalEdgeStyle;rounded=0;orthogonalLoop=1;jettySize=auto;html=1;exitX=0.5;exitY=1;exitDx=0;exitDy=0;" edge="1" parent="WIyWlLk6GJQsqaUBKTNV-1" source="QF6pp8mLx_lwqcU90dm6-3" target="QF6pp8mLx_lwqcU90dm6-7">
          <mxGeometry relative="1" as="geometry" />
        </mxCell>
        <mxCell id="QF6pp8mLx_lwqcU90dm6-3" value="DISCOUNTER = DISCOUNTER - 1" style="rounded=1;whiteSpace=wrap;html=1;absoluteArcSize=1;arcSize=14;strokeWidth=2;" vertex="1" parent="WIyWlLk6GJQsqaUBKTNV-1">
          <mxGeometry x="380" y="390" width="280" height="70" as="geometry" />
        </mxCell>
        <mxCell id="QF6pp8mLx_lwqcU90dm6-7" value="PRINT DISCOUNTER" style="shape=parallelogram;html=1;strokeWidth=2;perimeter=parallelogramPerimeter;whiteSpace=wrap;rounded=1;arcSize=12;size=0.23;" vertex="1" parent="WIyWlLk6GJQsqaUBKTNV-1">
          <mxGeometry x="397.5" y="525" width="245" height="60" as="geometry" />
        </mxCell>
        <mxCell id="QF6pp8mLx_lwqcU90dm6-11" style="edgeStyle=orthogonalEdgeStyle;rounded=0;orthogonalLoop=1;jettySize=auto;html=1;exitX=0.5;exitY=0;exitDx=0;exitDy=0;exitPerimeter=0;entryX=0;entryY=0.5;entryDx=0;entryDy=0;" edge="1" parent="WIyWlLk6GJQsqaUBKTNV-1" source="QF6pp8mLx_lwqcU90dm6-9" target="QF6pp8mLx_lwqcU90dm6-3">
          <mxGeometry relative="1" as="geometry" />
        </mxCell>
        <mxCell id="QF6pp8mLx_lwqcU90dm6-17" value="NO" style="edgeLabel;html=1;align=center;verticalAlign=middle;resizable=0;points=[];" vertex="1" connectable="0" parent="QF6pp8mLx_lwqcU90dm6-11">
          <mxGeometry x="0.2464" y="-2" relative="1" as="geometry">
            <mxPoint as="offset" />
          </mxGeometry>
        </mxCell>
        <mxCell id="QF6pp8mLx_lwqcU90dm6-9" value="DISCOUNTER = 1" style="strokeWidth=2;html=1;shape=mxgraph.flowchart.decision;whiteSpace=wrap;" vertex="1" parent="WIyWlLk6GJQsqaUBKTNV-1">
          <mxGeometry x="120" y="485" width="140" height="140" as="geometry" />
        </mxCell>
        <mxCell id="QF6pp8mLx_lwqcU90dm6-10" style="edgeStyle=orthogonalEdgeStyle;rounded=0;orthogonalLoop=1;jettySize=auto;html=1;exitX=0;exitY=0.5;exitDx=0;exitDy=0;entryX=1;entryY=0.5;entryDx=0;entryDy=0;entryPerimeter=0;" edge="1" parent="WIyWlLk6GJQsqaUBKTNV-1" source="QF6pp8mLx_lwqcU90dm6-7" target="QF6pp8mLx_lwqcU90dm6-9">
          <mxGeometry relative="1" as="geometry" />
        </mxCell>
        <mxCell id="QF6pp8mLx_lwqcU90dm6-12" value="END" style="strokeWidth=2;html=1;shape=mxgraph.flowchart.terminator;whiteSpace=wrap;" vertex="1" parent="WIyWlLk6GJQsqaUBKTNV-1">
          <mxGeometry x="470" y="680" width="100" height="60" as="geometry" />
        </mxCell>
        <mxCell id="QF6pp8mLx_lwqcU90dm6-15" style="edgeStyle=orthogonalEdgeStyle;rounded=0;orthogonalLoop=1;jettySize=auto;html=1;exitX=0.5;exitY=1;exitDx=0;exitDy=0;exitPerimeter=0;entryX=0;entryY=0.5;entryDx=0;entryDy=0;entryPerimeter=0;" edge="1" parent="WIyWlLk6GJQsqaUBKTNV-1" source="QF6pp8mLx_lwqcU90dm6-9" target="QF6pp8mLx_lwqcU90dm6-12">
          <mxGeometry relative="1" as="geometry" />
        </mxCell>
        <mxCell id="QF6pp8mLx_lwqcU90dm6-16" value="YES" style="edgeLabel;html=1;align=center;verticalAlign=middle;resizable=0;points=[];" vertex="1" connectable="0" parent="QF6pp8mLx_lwqcU90dm6-15">
          <mxGeometry x="0.1003" y="1" relative="1" as="geometry">
            <mxPoint as="offset" />
          </mxGeometry>
        </mxCell>
      </root>
    </mxGraphModel>
  </diagram>
</mxfile>
